<?xml version="1.0" encoding="utf-8"?>
<!-- Generator: Adobe Illustrator 28.0.0, SVG Export Plug-In . SVG Version: 6.00 Build 0)  -->
<svg version="1.1" id="Layer_1" xmlns="http://www.w3.org/2000/svg" xmlns:xlink="http://www.w3.org/1999/xlink" x="0px" y="0px"
	 viewBox="0 0 3000 3000" style="enable-background:new 0 0 3000 3000;" xml:space="preserve">
<style type="text/css">
	.st0{fill:#249CCF;}
	.st1{fill-rule:evenodd;clip-rule:evenodd;fill:#249CCF;}
</style>
<g id="Logotype">
	<g>
		<g>
			<g>
				<path class="st0" d="M1100.8,2051.6h260.3c56.7,0,99.2,9.2,127.4,27.5c28.2,18.3,42.4,44.4,42.4,78.3c0,34.8-15.4,62-46.2,81.6
					c-30.8,19.6-77.7,29.4-140.9,29.4h-85.7v127.9h-157.3L1100.8,2051.6L1100.8,2051.6z M1258.1,2198.6h38.4
					c30.2,0,51.4-3.6,63.6-10.7c12.2-7.1,18.3-16.2,18.3-27.4c0-10.8-5.3-20-15.9-27.5s-30.5-11.3-59.8-11.3h-44.6V2198.6
					L1258.1,2198.6z"/>
				<path class="st0" d="M1685.7,2051.6h156.6v120.7h171.1v-120.7h157.3v344.8h-157.3V2257h-171.1v139.5h-156.6V2051.6z"/>
				<path class="st0" d="M2295.5,2051.6H2468l89.7,106.1l87.3-106.1h170.8l-157.8,167l172.6,177.8h-176l-100.1-110.8l-100.1,110.8
					h-174.9l174.8-179.7L2295.5,2051.6z"/>
			</g>
			<path class="st1" d="M865.3,603.6c2.7,1,5.3,2,7.9,2.9c26.1,8.7,41.8,34.2,37.5,61.3c-9.2,57.9-25.1,157.8-34.4,215.8
				c-8.5,53-17,106.1-25.5,159.2c-5.4,33.4-10.9,66.8-16.3,100.2c-0.5,3-0.7,6.1-1.1,9.8c2.7-0.5,4.9-0.8,7-1.4
				c77.5-20.5,375.8-94.6,431-103.1c37.5-5.8,51.7,14.1,89.5,9.7c35.9-4.1,64.3-6.7,100.3-10.6c38-4.1,83.3,30.2,89.1,69.9
				c2.3,15.7,0.1,30.5-7.6,44.2c-15.9,28.4-31.7,56.9-48.3,84.9c-46.7,78.4-148.5,233.6-149.7,235.5
				c72.9,59.6,115.9-23.6,171.3-44.6c52.6-19.9,79.5,47.2,47.8,79c-105.4,107.6-209.7,110.8-286.7,54c-0.8-0.6-1.7-1.2-2.5-1.8
				c-0.2-0.2-0.4-0.3-1.4-0.8c-1.9,1.6-4,3.3-6,5.2c-146,173.8-675.8,179.2-257.1-337.6c1.8-2.2,6.4-5.6,7.7-8.7
				c-13.6,2.9-20.1,4.1-33.6,7.2c-52.5,12.3-105.1,24.7-157.5,37.3c-13.5,3.2-13.8,3.5-15.5,17.3
				C342.3,2843.9-466,1557.8,704,1193.7c3.4-1.2,6.7-2.5,9.9-3.6c0.3-1.2,0.6-1.9,0.7-2.7c4.8-29.3,9.5-58.6,14.2-87.9
				c11.2-68.8,22.4-137.7,33.5-206.5c10.6-65.8,27.6-173.7,38.1-239.5c3.9-24.5,17.4-40.8,41.4-48.1c1.2-0.3,2.2-1.1,3.2-1.7
				C851.9,603.6,858.6,603.6,865.3,603.6z M694.2,1316.3c-3.6,1.3-5.3,1.8-7,2.5c-20.9,8.9-42,17.4-62.7,26.8
				c-689.6,298-363.2,1131.8,65-6.1C692.7,1326.8,691.2,1330.9,694.2,1316.3z M1406.1,1176.3c-3,0.3-5.3,0.2-7.5,0.7
				c-33.8,7.5-91.6,11.7-125.1,20c-502.8,216.1-241.4,730.8,129.9-15.1C1404.3,1180.4,1404.9,1178.8,1406.1,1176.3z"/>
			<path class="st1" d="M871.9,2046c-1.8-0.7-3.5-1.4-5.3-2c-38.7-11.4-48.8-49.6-18.5-71.8c408.8-298.3,1345.2-380.3,1977-250.7
				c25.8,4,42.5,18.8,45.1,39.1c2.9,22.3-19.8,44-48.2,45.8c-69.7,4.2-1160.2-237.2-1924.3,239.6C889.2,2046,880.5,2046,871.9,2046z
				"/>
			<path class="st1" d="M2898.2,1139.2c-20,87.7-192.3,92.3-390.1,181.5c-9.9,4.5-19.5,9.4-29.3,14.2c-2,1-7.9,5.8-9.8,7.7
				c38-3.6,454.6,35.6,398.5,149.8c-13.5,22.9-41.4,33.8-66.6,24.2c-305.2-115.8-427.2,5.5-471.8-138.8
				c-47.5-153.6,400.6-249.2,400.4-255.6c0.7-5-146.5-27-299.8-21.8c-26.3,0.9-75.3-43.5-12.9-91.9
				C2466.9,969.6,2932.2,990,2898.2,1139.2z"/>
			<path class="st1" d="M1775.9,1386.1c213.8-46.5,411.7-31.6,440.7-27.5c26.7,3.7,46.2,25.9,47.4,51.7
				c1.2,27.2-15.8,50.4-41.8,57.1c-8.4,2.2-16.9,2-25.4,0.6c-157.4-29.4-359.8,9-455.5,34.4c-50.6,13.4-57.2,0.4-83.4-19.1
				c-144.2-140.9,313.3-351.6,368.1-378.4c16.9-8.3,33.6-17.2,50.3-25.8c2.3-1.2,4.5-2.4,8.3-4.4c-3.3-0.4-5.1-0.8-7-0.9
				c-126.4-14.6-291.4,30.6-365.9,52.7c-32.2,9.5-63.4-8.5-71.2-40.7c-6.5-27,8.7-55.7,35.6-64.3c75.7-24.3,442.2-97.2,551.9-31.2
				c20.8,12.5,33.6,30.2,36.1,54.7c1.7,16.4-2.5,31.2-11.1,45c-6.8,10.9-15.8,19.8-25.6,27.9c-16.6,13.7-405.5,229.8-440.5,257.3
				c-4,3.1-7.8,6.4-11.8,9.7C1775.4,1385.2,1775.7,1385.6,1775.9,1386.1z"/>
		</g>
	</g>
</g>
</svg>
